# AST/ASF file generated using VICON BodyLanguage
# -----------------------------------------------
:version 1.10
:name VICON
:units
  mass 1.0
  length 0.45
  angle deg
:documentation
   .ast/.asf automatically generated from VICON data using
   VICON BodyBuilder and BodyLanguage model FoxedUp or BRILLIANT.MOD
:root
   order TX TY TZ RX RY RZ
   axis XYZ
   position 0 0 0  
   orientation 0 0 0 
:bonedata
  begin
     id 1 
     name lhipjoint
     direction 0.660183 -0.676772 0.325788 
     length 2.75133 
     axis 0 0 0  XYZ
  end
  begin
     id 2 
     name lfemur
     direction 0.34202 -0.939693 0  
     length 7.70317  
     axis 0 0 20  XYZ
    dof rx ry rz
    limits (-160.0 20.0)
           (-70.0 70.0)
           (-60.0 70.0)
  end
  begin
     id 3 
     name ltibia
     direction 0.342105 -0.939662 0   
     length 7.18701   
     axis 0 0 20   XYZ
    dof rx
    limits (-10.0 170.0)
  end
  begin
     id 4 
     name lfoot
     direction 0.14163 -0.389126 0.910232   
     length 2.41719   
     axis -90 7.62852e-016 20   XYZ
    dof rx rz
    limits (-45.0 90.0)
           (-70.0 20.0)
  end
  begin
     id 5 
     name ltoes
     direction 1.53533e-011 -4.21926e-011 1   
     length 1.18611   
     axis -90 7.62852e-016 20   XYZ
    dof rx
    limits (-90.0 20.0)
  end
  begin
     id 6 
     name rhipjoint
     direction -0.6658 -0.67229 0.323631   
     length 2.76968  
     axis 0 0 0  XYZ 
  end
  begin
     id 7 
     name rfemur
     direction -0.34202 -0.939693 0   
     length 7.92547   
     axis 0 0 -20   XYZ
    dof rx ry rz
    limits (-160.0 20.0)
           (-70.0 70.0)
           (-70.0 60.0)
  end
  begin
     id 8 
     name rtibia
     direction -0.342022 -0.939692 0   
     length 7.22641   
     axis 0 0 -20   XYZ
    dof rx
    limits (-10.0 170.0)
 end
 begin
     id 9 
     name rfoot
     direction -0.105675 -0.29034 0.951071   
     length 2.48149  
     axis -90 -7.62852e-016 -20   XYZ
    dof rx rz
    limits (-45.0 90.0)
           (-20.0 70.0)
  end
  begin
     id 10 
     name rtoes
     direction -1.5349e-011 -4.21859e-011 1   
     length 1.23343   
     axis -90 -7.62852e-016 -20   XYZ
    dof rx
    limits (-90.0 20.0)
  end
  begin
     id 11 
     name lowerback
     direction 0.0104173 0.993624 -0.112266   
     length 2.00527   
     axis 0 0 0   XYZ
    dof rx ry rz
    limits (-20.0 45.0)
           (-30.0 30.0)
           (-30.0 30.0)
  end
  begin
     id 12 
     name upperback
     direction 0.00733149 0.999856 -0.0152913   
     length 2.01385   
     axis 0 0 0   XYZ
    dof rx ry rz
    limits (-20.0 45.0)
           (-30.0 30.0)
           (-30.0 30.0)
  end
  begin
     id 13 
     name thorax
     direction 0.0026304 0.999318 0.036841   
     length 2.03734   
     axis 0 0 0   XYZ
    dof rx ry rz
    limits (-20.0 45.0)
           (-30.0 30.0)
           (-30.0 30.0)
  end
  begin
     id 14 
     name lowerneck
     direction 0.0293154 0.998757 0.0403082   
     length 1.65303   
     axis 0 0 0   XYZ
    dof rx ry rz
    limits (-20.0 45.0)
           (-30.0 30.0)
           (-30.0 30.0)
  end
  begin
     id 15 
     name upperneck
     direction -0.0376619 0.998184 -0.0470083   
     length 1.60926   
     axis 0 0 0   XYZ
    dof rx ry rz
    limits (-20.0 45.0)
           (-30.0 30.0)
           (-30.0 30.0)
  end
  begin
     id 16
     name head
     direction -0.0170133 0.999635 -0.0209778  
     length 1.73625  
     axis 0 0 0   XYZ
    dof rx ry rz
    limits (-20.0 45.0)
           (-30.0 30.0)
           (-30.0 30.0)
  end
  begin
     id 17 
     name lclavicle
     direction 0.919857 0.39181 -0.0186333  
     length 3.75313  
     axis 0 0 0   XYZ
    dof ry rz
    limits (-20.0 10.0)
           (0.0 20.0)
  end
  begin
     id 18 
     name lhumerus
     direction 1 -4.48988e-011 1.44029e-027   
     length 5.49313   
     axis 180 -30 -90   XYZ
    dof rx ry rz
    limits (-60.0 90.0)
           (-90.0 90.0)
           (-90.0 90.0)
  end
  begin
     id 19
     name lradius
     direction 1 -4.48924e-011 7.46281e-027   
     length 3.29037   
     axis 180 -30 -90   XYZ
    dof rx
    limits (-10.0 170.0)
  end
  begin
     id 20
     name lwrist
     direction 1 -4.48955e-011 2.19879e-026   
     length 1.64519   
     axis -1.34358e-014 90 90   XYZ
    dof ry
    limits (-180.0 0.0)
 end
  begin
     id 21 
     name lhand
     direction 1 -4.48978e-011 4.39747e-026   
     length 0.729656   
     axis -2.80598e-014 90 90   XYZ
    dof rx rz
    limits (-90.0 90.0)
           (-45.0 45.0)
  end
  begin
     id 22 
     name lfingers
     direction 1 -4.49071e-011 8.79411e-026   
     length 0.588268   
     axis -5.61193e-014 90 90   XYZ
    dof rx
    limits (0.0 90.0)
  end
  begin
     id 23
     name lthumb
     direction 0.707107 -6.34817e-011 0.707107   
     length 0.844638   
     axis -90 45 -9.86923e-015   XYZ
    dof rx rz
    limits (-45.0 45.0)
           (-45.0 45.0)
  end
  begin
     id 24 
     name rclavicle
     direction -0.919898 0.388279 0.0550233   
     length 3.7171  
     axis 0 0 0   XYZ 
    dof ry rz
    limits (-10.0 20.0)
           (-20.0 0.0)
  end
  begin
     id 25 
     name rhumerus
     direction -1 -4.48968e-011 9.98372e-028  
     length 5.23684   
     axis 180 30 90   XYZ
    dof rx ry rz
    limits (-90.0 60.0)
           (-90.0 90.0)
           (-90.0 90.0)
  end
  begin
     id 26 
     name rradius
     direction -1 -4.48956e-011 1.01023e-026   
     length 3.38251   
     axis 180 30 90   XYZ
    dof rx
    limits (-10.0 170.0)
  end
  begin
     id 27 
     name rwrist
     direction -1 -4.4892e-011 2.19886e-026   
     length 1.69126   
     axis -1.34358e-014 -90 -90   XYZ
    dof ry
    limits (-180.0 0.0)
  end
  begin
     id 28
     name rhand
     direction -1 -4.49024e-011 4.39727e-026   
     length 0.691454   
     axis -2.80598e-014 -90 -90   XYZ
    dof rx rz
    limits (-90.0 90.0)
           (-45.0 45.0)
  end
  begin
     id 29
     name rfingers
     direction -1 -4.49097e-011 8.79388e-026   
     length 0.557468   
     axis -5.61193e-014 -90 -90   XYZ
    dof rx
    limits (0.0 90.0)
  end
  begin
     id 30
     name rthumb
     direction -0.707107 -6.34938e-011 0.707107   
     length 0.800416   
     axis -90 -45 9.86923e-015   XYZ
    dof rx rz
    limits (-45.0 45.0)
           (-45.0 45.0)
  end
:hierarchy
  begin
    root lhipjoint rhipjoint lowerback
    lhipjoint lfemur
    lfemur ltibia
    ltibia lfoot
    lfoot ltoes
    rhipjoint rfemur
    rfemur rtibia
    rtibia rfoot
    rfoot rtoes
    lowerback upperback
    upperback thorax
    thorax lowerneck lclavicle rclavicle
    lowerneck upperneck
    upperneck head
    lclavicle lhumerus
    lhumerus lradius
    lradius lwrist
    lwrist lhand lthumb
    lhand lfingers
    rclavicle rhumerus
    rhumerus rradius
    rradius rwrist
    rwrist rhand rthumb
    rhand rfingers
  end

#!OML:ASF H:\BabyWalks\Project 1\Capture day 1\Session 1\baby.ASF
:FULLY-SPECIFIED
:DEGREES
301
root -13.1645 17.3791 -1.08968 -153.726 82.8332 -154.433
lowerback 20.6573 0.337198 6.25653
upperback 5.11619 2.3947 3.0942
thorax -5.86748 1.28475 -0.844016
lowerneck 0.353406 -3.71147 4.57055
upperneck -8.9456 -5.2518 -6.77592
head -3.32387 -2.48239 -2.90328
rclavicle -3.53837e-014 3.97569e-015
rhumerus -48.9974 5.25575 -76.0924
rradius 35.9027
rwrist 11.1583
rhand 2.14864 -17.2113
rfingers 7.12502
rthumb 27.6467 -45.1998
lclavicle -3.53837e-014 3.97569e-015
lhumerus -38.856 -20.5918 77.364
lradius 74.4369
lwrist 2.93254
lhand -6.36017 2.8193
lfingers 7.12502
lthumb 19.4861 31.8629
rfemur -24.494 0.611112 22.791
rtibia 33.0814
rfoot -9.01558 -3.11458
rtoes 3.22642
lfemur -14.8809 1.61837 -8.94821
ltibia 54.758
lfoot -15.1718 -25.9066
ltoes -13.8751
302
root -13.0755 17.3529 -1.06618 -153.877 82.8268 -154.506
lowerback 20.8142 0.339023 6.5008
upperback 5.2133 2.48073 3.22357
thorax -5.83515 1.33291 -0.866333
lowerneck 0.39832 -3.66076 4.79181
upperneck -9.09871 -5.20336 -7.08898
head -3.40458 -2.4511 -3.05689
rclavicle -3.1408e-014 -1.43125e-014
rhumerus -48.1544 5.24804 -75.768
rradius 35.8716
rwrist 11.4447
rhand 1.47336 -17.2682
rfingers 7.12502
rthumb 27.0008 -45.3585
lclavicle -3.1408e-014 -1.43125e-014
lhumerus -39.6941 -19.8424 77.633
lradius 73.3821
lwrist 2.54232
lhand -6.33561 2.79789
lfingers 7.12502
lthumb 19.5097 31.8391
rfemur -24.6129 0.407277 22.9683
rtibia 34.0995
rfoot -9.72494 -2.97851
rtoes 2.84435
lfemur -15.6325 1.97392 -8.60951
ltibia 56.302
lfoot -14.3796 -26.3271
ltoes -13.9358
303
root -12.9879 17.3301 -1.04219 -154.774 82.8227 -155.354
lowerback 20.9467 0.334472 6.61985
upperback 5.30347 2.52663 3.32503
thorax -5.80371 1.36189 -0.837775
lowerneck 0.442371 -3.60102 4.98221
upperneck -9.22361 -5.13784 -7.32936
head -3.46978 -2.41352 -3.18073
rclavicle -4.29375e-014 -2.46493e-014
rhumerus -47.3 5.19504 -75.4432
rradius 35.9193
rwrist 11.6193
rhand 0.516218 -17.3744
rfingers 7.12502
rthumb 26.0847 -45.6032
lclavicle -4.29375e-014 -2.46493e-014
lhumerus -40.4789 -19.0878 77.9087
lradius 72.1881
lwrist 2.1451
lhand -6.29384 2.65889
lfingers 7.12502
lthumb 19.5499 31.696
rfemur -24.7149 0.21237 23.033
rtibia 35.0397
rfoot -10.4149 -2.94076
rtoes 2.46319
lfemur -16.3983 2.26999 -8.40995
ltibia 57.7028
lfoot -13.8724 -26.3869
ltoes -13.9315
304
root -12.9021 17.311 -1.01799 -156.096 82.7916 -156.655
lowerback 21.0633 0.316595 6.6739
upperback 5.3842 2.53792 3.40798
thorax -5.77807 1.37376 -0.783681
lowerneck 0.466069 -3.54078 5.13418
upperneck -9.30475 -5.06683 -7.49926
head -3.51074 -2.37567 -3.27312
rclavicle -3.73715e-014 -6.52014e-014
rhumerus -46.4472 5.10343 -75.1368
rradius 36.0513
rwrist 11.6792
rhand -0.752347 -17.5231
rfingers 7.12502
rthumb 24.8696 -45.9254
lclavicle -3.73715e-014 -6.52014e-014
lhumerus -41.2041 -18.355 78.1921
lradius 70.8911
lwrist 1.76304
lhand -6.21852 2.4282
lfingers 7.12502
lthumb 19.6223 31.4579
rfemur -24.7959 0.0301708 23.0355
rtibia 35.8862
rfoot -11.0939 -2.92625
rtoes 2.18689
lfemur -17.1872 2.52054 -8.30043
ltibia 58.9598
lfoot -13.6654 -26.0953
ltoes -13.8838
305
root -12.8183 17.296 -0.994035 -157.54 82.7126 -158.105
lowerback 21.1704 0.280355 6.71711
upperback 5.45109 2.52118 3.47916
thorax -5.76392 1.37107 -0.729032
lowerneck 0.468742 -3.48512 5.24711
upperneck -9.34045 -4.99742 -7.60391
head -3.52739 -2.34092 -3.33494
rclavicle 2.70347e-014 5.24792e-014
rhumerus -45.6138 4.97465 -74.8628
rradius 36.2731
rwrist 11.6286
rhand -2.29679 -17.7097
rfingers 7.12502
rthumb 23.3887 -46.3085
lclavicle 2.70347e-014 5.24792e-014
lhumerus -41.8657 -17.6677 78.4846
lradius 69.5197
lwrist 1.41714
lhand -6.08275 2.12768
lfingers 7.12502
lthumb 19.7528 31.144
rfemur -24.8507 -0.142318 23.0219
rtibia 36.6237
rfoot -11.7279 -2.97079
rtoes 1.97368
lfemur -18.0022 2.73729 -8.23895
ltibia 60.0696
lfoot -13.7281 -25.4929
ltoes -13.7925
306
root -12.7368 17.2852 -0.971019 -158.844 82.5809 -159.44
lowerback 21.2678 0.223937 6.78781
upperback 5.50521 2.48317 3.54556
thorax -5.75814 1.35711 -0.689464
lowerneck 0.440211 -3.43588 5.32161
upperneck -9.32821 -4.93311 -7.65567
head -3.51777 -2.3107 -3.37028
rclavicle 8.74653e-015 -1.59028e-014
rhumerus -44.806 4.82217 -74.6291
rradius 36.5888
rwrist 11.4924
rhand -4.07706 -17.9287
rfingers 7.12502
rthumb 21.68 -46.7348
lclavicle 8.74653e-015 -1.59028e-014
lhumerus -42.4662 -17.0461 78.7944
lradius 68.1202
lwrist 1.13668
lhand -5.8741 1.81952
lfingers 7.12502
lthumb 19.9534 30.8151
rfemur -24.877 -0.300168 23.0243
rtibia 37.2418
rfoot -12.3052 -3.06855
rtoes 1.80816
lfemur -18.846 2.93186 -8.19564
ltibia 61.0258
lfoot -14.0097 -24.648
ltoes -13.6747
307
root -12.6579 17.2783 -0.94966 -159.886 82.4097 -160.541
lowerback 21.3598 0.150978 6.90138
upperback 5.5435 2.4325 3.60742
thorax -5.7653 1.33568 -0.675571
lowerneck 0.385699 -3.3915 5.36837
upperneck -9.2737 -4.87297 -7.67322
head -3.48612 -2.28401 -3.38773
rclavicle -1.66979e-014 -4.13472e-014
rhumerus -44.0422 4.66574 -74.4469
rradius 37.0103
rwrist 11.2829
rhand -6.08377 -18.1698
rfingers 7.12502
rthumb 19.7518 -47.1863
lclavicle -1.66979e-014 -4.13472e-014
lhumerus -43.0167 -16.5036 79.1222
lradius 66.7382
lwrist 0.9365
lhand -5.55015 1.54161
lfingers 7.12502
lthumb 20.2647 30.5045
rfemur -24.8827 -0.439508 23.0526
rtibia 37.7405
rfoot -12.8225 -3.2023
rtoes 1.68988
lfemur -19.7157 3.11673 -8.16325
ltibia 61.8166
lfoot -14.4378 -23.6451
ltoes -13.5431
308
root -12.5819 17.2761 -0.930407 -160.746 82.2211 -161.494
lowerback 21.4491 0.0675593 7.04425
upperback 5.56519 2.37363 3.65826
thorax -5.78777 1.30873 -0.687881
lowerneck 0.318967 -3.34966 5.39694
upperneck -9.1944 -4.81476 -7.66921
head -3.44203 -2.25904 -3.39372
rclavicle 0 1.11319e-014
rhumerus -43.3353 4.53017 -74.3263
rradius 37.5503
rwrist 10.9899
rhand -8.26717 -18.4302
rfingers 7.12502
rthumb 17.6518 -47.6489
lclavicle 0 1.11319e-014
lhumerus -43.5325 -16.0511 79.4701
lradius 65.4212
lwrist 0.816568
lhand -5.08478 1.36268
lfingers 7.12502
lthumb 20.7119 30.2774
rfemur -24.8752 -0.561365 23.0893
rtibia 38.1288
rfoot -13.2788 -3.35627
rtoes 1.61237
lfemur -20.599 3.30028 -8.16307
ltibia 62.4259
lfoot -14.9444 -22.5565
ltoes -13.4285
309
root -12.5088 17.2781 -0.913827 -161.557 82.047 -162.431
lowerback 21.5328 -0.0139982 7.1903
upperback 5.57319 2.31541 3.69074
thorax -5.82132 1.28071 -0.721763
lowerneck 0.245144 -3.30767 5.41904
upperneck -9.10209 -4.75591 -7.65941
head -3.39159 -2.23403 -3.39631
rclavicle -1.86858e-014 -5.56597e-014
rhumerus -42.6984 4.42843 -74.2667
rradius 38.2348
rwrist 10.6066
rhand -10.5032 -18.7267
rfingers 7.12502
rthumb 15.499 -48.1254
lclavicle -1.86858e-014 -5.56597e-014
lhumerus -44.0237 -15.6976 79.8368
lradius 64.2131
lwrist 0.767895
lhand -4.43872 1.31326
lfingers 7.12502
lthumb 21.3326 30.1591
rfemur -24.8667 -0.664109 23.1061
rtibia 38.4223
rfoot -13.6792 -3.50721
rtoes 1.55742
lfemur -21.4819 3.49501 -8.22763
ltibia 62.8406
lfoot -15.507 -21.4371
ltoes -13.4125
310
root -12.4388 17.2841 -0.899795 -162.416 81.9039 -163.454
lowerback 21.6079 -0.0866212 7.31064
upperback 5.57159 2.26 3.70492
thorax -5.86107 1.25304 -0.761426
lowerneck 0.171733 -3.26157 5.43765
upperneck -9.0143 -4.69205 -7.65368
head -3.34253 -2.20608 -3.39987
rclavicle -3.18055e-015 9.54166e-015
rhumerus -42.1348 4.38124 -74.2633
rradius 39.0845
rwrist 10.1197
rhand -12.7073 -19.0533
rfingers 7.12502
rthumb 13.3753 -48.604
lclavicle -3.18055e-015 9.54166e-015
lhumerus -44.4951 -15.4348 80.2201
lradius 63.1519
lwrist 0.769325
lhand -3.57998 1.42236
lfingers 7.12502
lthumb 22.1572 30.1726
rfemur -24.8699 -0.748952 23.0851
rtibia 38.6372
rfoot -14.0264 -3.63867
rtoes 1.522
lfemur -22.3552 3.71012 -8.3762
ltibia 63.0526
lfoot -16.0916 -20.3146
ltoes -13.5523
311
root -12.3717 17.2939 -0.888303 -163.387 81.8139 -164.621
lowerback 21.6817 -0.14121 7.39247
upperback 5.56166 2.21603 3.6934
thorax -5.90909 1.22979 -0.810078
lowerneck 0.111159 -3.21117 5.45713
upperneck -8.94289 -4.62262 -7.64907
head -3.30131 -2.1748 -3.40419
rclavicle -1.47101e-014 3.18055e-015
rhumerus -41.6597 4.39018 -74.3166
rradius 40.1134
rwrist 9.51065
rhand -14.8363 -19.3887
rfingers 7.12502
rthumb 11.3226 -49.0631
lclavicle -1.47101e-014 3.18055e-015
lhumerus -44.9491 -15.2589 80.6088
lradius 62.2537
lwrist 0.784751
lhand -2.49514 1.68293
lfingers 7.12502
lthumb 23.1984 30.3058
rfemur -24.8862 -0.810558 23.0129
rtibia 38.7874
rfoot -14.3263 -3.73369
rtoes 1.51645
lfemur -23.1968 3.9638 -8.62241
ltibia 63.0597
lfoot -16.6758 -19.1662
ltoes -13.8742
312
root -12.3071 17.3069 -0.879011 -164.42 81.7823 -165.879
lowerback 21.7551 -0.174037 7.43516
upperback 5.54757 2.18849 3.65988
thorax -5.96113 1.21376 -0.864726
lowerneck 0.0604065 -3.15621 5.48182
upperneck -8.89118 -4.54761 -7.64941
head -3.26877 -2.1402 -3.41155
rclavicle -4.21423e-014 -1.90833e-014
rhumerus -41.2745 4.45633 -74.418
rradius 41.3335
rwrist 8.75689
rhand -16.7575 -19.7175
rfingers 7.12502
rthumb 9.46936 -49.4847
lclavicle -4.21423e-014 -1.90833e-014
lhumerus -45.3965 -15.1701 80.9984
lradius 61.5561
lwrist 0.795257
lhand -1.19039 2.10663
lfingers 7.12502
lthumb 24.4497 30.5663
rfemur -24.9187 -0.848171 22.9005
rtibia 38.8826
rfoot -14.5724 -3.78647
rtoes 1.51577
lfemur -23.999 4.2693 -8.9553
ltibia 62.8699
lfoot -17.2444 -17.955
ltoes -14.3302
